<?xml version="1.0" encoding="UTF-8" standalone="no"?>
<svg
   xmlns:dc="http://purl.org/dc/elements/1.1/"
   xmlns:cc="http://creativecommons.org/ns#"
   xmlns:rdf="http://www.w3.org/1999/02/22-rdf-syntax-ns#"
   xmlns:svg="http://www.w3.org/2000/svg"
   xmlns="http://www.w3.org/2000/svg"
   xmlns:sodipodi="http://sodipodi.sourceforge.net/DTD/sodipodi-0.dtd"
   xmlns:inkscape="http://www.inkscape.org/namespaces/inkscape"
   viewBox="0 0 284.82001 121.53"
   version="1.1"
   id="svg165"
   sodipodi:docname="new-logo-cpe-bleu-crop.svg"
   width="284.82001"
   height="121.53"
   inkscape:version="0.92.4 5da689c313, 2019-01-14">
  <metadata
     id="metadata171">
    <rdf:RDF>
      <cc:Work
         rdf:about="">
        <dc:format>image/svg+xml</dc:format>
        <dc:type
           rdf:resource="http://purl.org/dc/dcmitype/StillImage" />
        <dc:title></dc:title>
      </cc:Work>
    </rdf:RDF>
  </metadata>
  <defs
     id="defs169" />
  <sodipodi:namedview
     pagecolor="#ffffff"
     bordercolor="#666666"
     borderopacity="1"
     objecttolerance="10"
     gridtolerance="10"
     guidetolerance="10"
     inkscape:pageopacity="0"
     inkscape:pageshadow="2"
     inkscape:window-width="924"
     inkscape:window-height="1003"
     id="namedview167"
     showgrid="false"
     fit-margin-top="0"
     fit-margin-left="0"
     fit-margin-right="0"
     fit-margin-bottom="0"
     inkscape:zoom="0.94681314"
     inkscape:cx="235.52694"
     inkscape:cy="60.765001"
     inkscape:window-x="979"
     inkscape:window-y="60"
     inkscape:window-maximized="1"
     inkscape:current-layer="svg165" />
  <style
     id="style2">.st0{fill:url(#SVGID_1_)}.st1{fill:url(#SVGID_2_)}.st2{fill:url(#SVGID_3_)}.st3{fill:url(#SVGID_4_)}.st4{fill:url(#SVGID_5_)}.st5{fill:url(#SVGID_6_)}.st6{fill:url(#SVGID_7_)}.st7{fill:url(#SVGID_8_)}.st8{fill:url(#SVGID_9_)}.st9{fill:url(#SVGID_10_)}.st10{fill:url(#SVGID_11_)}.st11{fill:url(#SVGID_12_)}.st12{fill:url(#SVGID_13_)}.st13{fill:url(#SVGID_14_)}.st14{fill:url(#SVGID_15_)}.st15{fill:url(#SVGID_16_)}.st16{fill:url(#SVGID_17_)}.st17{fill:url(#SVGID_18_)}.st18{fill:url(#SVGID_19_)}.st19{fill:url(#SVGID_20_)}.st20{fill:url(#SVGID_21_)}.st21{fill:url(#SVGID_22_)}.st22{fill:url(#SVGID_23_)}</style>
  <linearGradient
     id="SVGID_1_"
     gradientUnits="userSpaceOnUse"
     x1="434.29001"
     y1="75.057999"
     x2="278.11801"
     y2="89.978996">
    <stop
       offset="0"
       stop-color="#00c0f3"
       id="stop4" />
    <stop
       offset="1"
       stop-color="#008dd0"
       id="stop6" />
  </linearGradient>
  <linearGradient
     id="SVGID_2_"
     gradientUnits="userSpaceOnUse"
     x1="434.39801"
     y1="76.191002"
     x2="278.22601"
     y2="91.112">
    <stop
       offset="0"
       stop-color="#00c0f3"
       id="stop11" />
    <stop
       offset="1"
       stop-color="#008dd0"
       id="stop13" />
  </linearGradient>
  <linearGradient
     id="SVGID_3_"
     gradientUnits="userSpaceOnUse"
     x1="434.50299"
     y1="77.290001"
     x2="278.33099"
     y2="92.210999">
    <stop
       offset="0"
       stop-color="#00c0f3"
       id="stop18" />
    <stop
       offset="1"
       stop-color="#008dd0"
       id="stop20" />
  </linearGradient>
  <linearGradient
     id="SVGID_4_"
     gradientUnits="userSpaceOnUse"
     x1="434.703"
     y1="79.383003"
     x2="278.53101"
     y2="94.304001">
    <stop
       offset="0"
       stop-color="#00c0f3"
       id="stop25" />
    <stop
       offset="1"
       stop-color="#008dd0"
       id="stop27" />
  </linearGradient>
  <linearGradient
     id="SVGID_5_"
     gradientUnits="userSpaceOnUse"
     x1="434.974"
     y1="82.216003"
     x2="278.80099"
     y2="97.137001">
    <stop
       offset="0"
       stop-color="#00c0f3"
       id="stop32" />
    <stop
       offset="1"
       stop-color="#008dd0"
       id="stop34" />
  </linearGradient>
  <linearGradient
     id="SVGID_6_"
     gradientUnits="userSpaceOnUse"
     x1="435.13501"
     y1="83.907997"
     x2="278.96301"
     y2="98.829002">
    <stop
       offset="0"
       stop-color="#00c0f3"
       id="stop39" />
    <stop
       offset="1"
       stop-color="#008dd0"
       id="stop41" />
  </linearGradient>
  <linearGradient
     id="SVGID_7_"
     gradientUnits="userSpaceOnUse"
     x1="435.29901"
     y1="85.620003"
     x2="279.12701"
     y2="100.54">
    <stop
       offset="0"
       stop-color="#00c0f3"
       id="stop46" />
    <stop
       offset="1"
       stop-color="#008dd0"
       id="stop48" />
  </linearGradient>
  <linearGradient
     id="SVGID_8_"
     gradientUnits="userSpaceOnUse"
     x1="437.271"
     y1="106.258"
     x2="281.099"
     y2="121.179">
    <stop
       offset="0"
       stop-color="#00c0f3"
       id="stop53" />
    <stop
       offset="1"
       stop-color="#008dd0"
       id="stop55" />
  </linearGradient>
  <linearGradient
     id="SVGID_9_"
     gradientUnits="userSpaceOnUse"
     x1="437.44101"
     y1="108.042"
     x2="281.26901"
     y2="122.963">
    <stop
       offset="0"
       stop-color="#00c0f3"
       id="stop60" />
    <stop
       offset="1"
       stop-color="#008dd0"
       id="stop62" />
  </linearGradient>
  <linearGradient
     id="SVGID_10_"
     gradientUnits="userSpaceOnUse"
     x1="437.56699"
     y1="109.355"
     x2="281.39401"
     y2="124.276">
    <stop
       offset="0"
       stop-color="#00c0f3"
       id="stop67" />
    <stop
       offset="1"
       stop-color="#008dd0"
       id="stop69" />
  </linearGradient>
  <linearGradient
     id="SVGID_11_"
     gradientUnits="userSpaceOnUse"
     x1="437.74899"
     y1="111.263"
     x2="281.577"
     y2="126.184">
    <stop
       offset="0"
       stop-color="#00c0f3"
       id="stop74" />
    <stop
       offset="1"
       stop-color="#008dd0"
       id="stop76" />
  </linearGradient>
  <linearGradient
     id="SVGID_12_"
     gradientUnits="userSpaceOnUse"
     x1="437.91901"
     y1="113.044"
     x2="281.74701"
     y2="127.965">
    <stop
       offset="0"
       stop-color="#00c0f3"
       id="stop81" />
    <stop
       offset="1"
       stop-color="#008dd0"
       id="stop83" />
  </linearGradient>
  <linearGradient
     id="SVGID_13_"
     gradientUnits="userSpaceOnUse"
     x1="438.073"
     y1="114.656"
     x2="281.901"
     y2="129.577">
    <stop
       offset="0"
       stop-color="#00c0f3"
       id="stop88" />
    <stop
       offset="1"
       stop-color="#008dd0"
       id="stop90" />
  </linearGradient>
  <linearGradient
     id="SVGID_14_"
     gradientUnits="userSpaceOnUse"
     x1="438.27301"
     y1="116.749"
     x2="282.10101"
     y2="131.66901">
    <stop
       offset="0"
       stop-color="#00c0f3"
       id="stop95" />
    <stop
       offset="1"
       stop-color="#008dd0"
       id="stop97" />
  </linearGradient>
  <linearGradient
     id="SVGID_15_"
     gradientUnits="userSpaceOnUse"
     x1="438.435"
     y1="118.439"
     x2="282.26199"
     y2="133.36">
    <stop
       offset="0"
       stop-color="#00c0f3"
       id="stop102" />
    <stop
       offset="1"
       stop-color="#008dd0"
       id="stop104" />
  </linearGradient>
  <linearGradient
     id="SVGID_16_"
     gradientUnits="userSpaceOnUse"
     x1="65.102997"
     y1="43.130001"
     x2="198.707"
     y2="51.330002">
    <stop
       offset="0"
       stop-color="#008dd0"
       id="stop109" />
    <stop
       offset="1"
       stop-color="#00c0f3"
       id="stop111" />
  </linearGradient>
  <path
     class="st15"
     d="M 42.83,13.92 H 78.7 c 3.84,0 6.96,-3.12 6.96,-6.96 C 85.66,3.12 82.54,0 78.7,0 H 42.83 C 19.21,0 0,19.21 0,42.83 0,66.45 19.21,85.66 42.83,85.66 H 78.7 c 3.84,0 6.96,-3.12 6.96,-6.96 0,-3.84 -3.12,-6.96 -6.96,-6.96 H 42.83 c -15.94,0 -28.91,-12.97 -28.91,-28.91 0,-15.94 12.97,-28.91 28.91,-28.91 z"
     id="path114"
     inkscape:connector-curvature="0"
     style="fill:url(#SVGID_16_)" />
  <linearGradient
     id="SVGID_17_"
     gradientUnits="userSpaceOnUse"
     x1="64.249001"
     y1="57.035"
     x2="197.853"
     y2="65.234001">
    <stop
       offset="0"
       stop-color="#008dd0"
       id="stop116" />
    <stop
       offset="1"
       stop-color="#00c0f3"
       id="stop118" />
  </linearGradient>
  <path
     class="st16"
     d="m 142.41,0 h -35.87 c -3.84,0 -6.96,3.12 -6.96,6.96 0,3.84 3.12,6.96 6.96,6.96 h 35.87 c 15.94,0 28.91,12.97 28.91,28.91 0,15.94 -12.97,28.91 -28.91,28.91 h -17.94 c -13.73,0 -24.89,11.17 -24.89,24.89 v 17.94 c 0,3.84 3.12,6.96 6.96,6.96 3.84,0 6.96,-3.12 6.96,-6.96 V 96.63 c 0,-6.05 4.92,-10.98 10.98,-10.98 h 17.94 c 23.62,0 42.83,-19.21 42.83,-42.83 C 185.25,19.2 166.03,0 142.41,0 Z"
     id="path121"
     inkscape:connector-curvature="0"
     style="fill:url(#SVGID_17_)" />
  <linearGradient
     id="SVGID_18_"
     gradientUnits="userSpaceOnUse"
     x1="65.849998"
     y1="30.952999"
     x2="199.45399"
     y2="39.153">
    <stop
       offset="0"
       stop-color="#008dd0"
       id="stop123" />
    <stop
       offset="1"
       stop-color="#00c0f3"
       id="stop125" />
  </linearGradient>
  <path
     class="st17"
     d="m 277.86,71.74 h -35.87 c -15.94,0 -28.91,-12.97 -28.91,-28.91 0,-15.94 12.97,-28.91 28.91,-28.91 h 35.87 c 3.84,0 6.96,-3.12 6.96,-6.96 C 284.82,3.12 281.7,0 277.86,0 h -35.87 c -23.62,0 -42.83,19.21 -42.83,42.83 0,23.62 19.21,42.83 42.83,42.83 h 35.87 c 3.84,0 6.96,-3.12 6.96,-6.96 0,-3.84 -3.12,-6.96 -6.96,-6.96 z"
     id="path128"
     inkscape:connector-curvature="0"
     style="fill:url(#SVGID_18_)" />
  <linearGradient
     id="SVGID_19_"
     gradientUnits="userSpaceOnUse"
     x1="65.819"
     y1="31.468"
     x2="199.423"
     y2="39.667">
    <stop
       offset="0"
       stop-color="#008dd0"
       id="stop130" />
    <stop
       offset="1"
       stop-color="#00c0f3"
       id="stop132" />
  </linearGradient>
  <path
     class="st18"
     d="m 241.99,35.87 c -3.84,0 -6.96,3.12 -6.96,6.96 0,3.84 3.12,6.96 6.96,6.96 h 17.94 c 3.84,0 6.96,-3.12 6.96,-6.96 0,-3.84 -3.12,-6.96 -6.96,-6.96 z"
     id="path135"
     inkscape:connector-curvature="0"
     style="fill:url(#SVGID_19_)" />
  <linearGradient
     id="SVGID_20_"
     gradientUnits="userSpaceOnUse"
     x1="61.396999"
     y1="103.518"
     x2="195.00101"
     y2="111.717">
    <stop
       offset="0"
       stop-color="#008dd0"
       id="stop137" />
    <stop
       offset="1"
       stop-color="#00c0f3"
       id="stop139" />
  </linearGradient>
  <path
     class="st19"
     d="m 169.34,116.92 -9.2,-0.02 0.04,-16.83 c 0,-0.62 -0.21,-1.14 -0.62,-1.55 -0.41,-0.41 -0.93,-0.62 -1.55,-0.62 -0.62,0 -1.14,0.21 -1.54,0.63 -0.4,0.41 -0.6,0.93 -0.6,1.54 l -0.04,18.87 c 0,0.6 0.19,1.1 0.58,1.49 0.39,0.39 0.89,0.59 1.48,0.59 l 11.44,0.03 c 0,0 0,0 0.01,0 0.59,0 1.09,-0.19 1.46,-0.57 0.38,-0.38 0.57,-0.87 0.57,-1.47 0,-0.59 -0.19,-1.09 -0.56,-1.48 -0.37,-0.41 -0.87,-0.61 -1.47,-0.61 z"
     id="path142"
     inkscape:connector-curvature="0"
     style="fill:url(#SVGID_20_)" />
  <linearGradient
     id="SVGID_21_"
     gradientUnits="userSpaceOnUse"
     x1="61.553001"
     y1="100.972"
     x2="195.157"
     y2="109.171">
    <stop
       offset="0"
       stop-color="#008dd0"
       id="stop144" />
    <stop
       offset="1"
       stop-color="#00c0f3"
       id="stop146" />
  </linearGradient>
  <path
     class="st20"
     d="m 205.35,98.81 c -0.24,-0.48 -0.75,-1.05 -1.85,-1.05 0,0 0,0 -0.01,0 -0.86,0 -1.61,0.52 -2.26,1.56 l -5.52,9.33 -5.55,-9.5 c -0.57,-0.94 -1.28,-1.42 -2.12,-1.42 0,0 -0.01,0 -0.01,0 -1.09,0 -1.62,0.58 -1.88,1.07 -0.25,0.48 -0.43,1.26 0.17,2.26 l 7.17,12.14 -0.01,5.78 c 0,0.6 0.21,1.11 0.62,1.52 0.41,0.41 0.92,0.62 1.52,0.62 0,0 0,0 0.01,0 0.61,0 1.13,-0.2 1.54,-0.59 0.42,-0.4 0.63,-0.92 0.63,-1.54 l 0.01,-5.85 7.36,-12.2 c 0.56,-0.92 0.41,-1.66 0.18,-2.13 z"
     id="path149"
     inkscape:connector-curvature="0"
     style="fill:url(#SVGID_21_)" />
  <linearGradient
     id="SVGID_22_"
     gradientUnits="userSpaceOnUse"
     x1="61.675999"
     y1="98.969002"
     x2="195.28"
     y2="107.168">
    <stop
       offset="0"
       stop-color="#008dd0"
       id="stop151" />
    <stop
       offset="1"
       stop-color="#00c0f3"
       id="stop153" />
  </linearGradient>
  <path
     class="st21"
     d="m 233.49,97.49 c -0.01,0 -0.02,0 -0.03,0 -3.25,0 -6.07,1.18 -8.37,3.51 -2.31,2.33 -3.48,5.19 -3.49,8.5 -0.01,3.28 1.15,6.14 3.45,8.48 2.3,2.35 5.12,3.54 8.39,3.55 0.01,0 0.02,0 0.03,0 3.25,0 6.07,-1.17 8.37,-3.49 2.31,-2.32 3.48,-5.16 3.49,-8.45 0.01,-3.31 -1.15,-6.18 -3.45,-8.53 -2.3,-2.36 -5.13,-3.56 -8.39,-3.57 z m -0.03,19.8 c -0.01,0 -0.01,0 -0.02,0 -2.05,0 -3.75,-0.75 -5.2,-2.27 -1.46,-1.53 -2.16,-3.33 -2.16,-5.51 0.01,-2.18 0.72,-3.98 2.19,-5.51 1.45,-1.52 3.15,-2.26 5.19,-2.26 0.01,0 0.01,0 0.02,0 2.07,0.01 3.78,0.76 5.23,2.3 1.46,1.55 2.17,3.37 2.16,5.54 0,2.15 -0.72,3.94 -2.18,5.46 -1.45,1.51 -3.16,2.25 -5.23,2.25 z"
     id="path156"
     inkscape:connector-curvature="0"
     style="fill:url(#SVGID_22_)" />
  <linearGradient
     id="SVGID_23_"
     gradientUnits="userSpaceOnUse"
     x1="61.821999"
     y1="96.594002"
     x2="195.425"
     y2="104.794">
    <stop
       offset="0"
       stop-color="#008dd0"
       id="stop158" />
    <stop
       offset="1"
       stop-color="#00c0f3"
       id="stop160" />
  </linearGradient>
  <path
     class="st22"
     d="m 282.78,98.53 c -0.4,-0.4 -0.91,-0.61 -1.53,-0.61 0,0 0,0 -0.01,0 -0.61,0 -1.13,0.2 -1.53,0.6 -0.4,0.4 -0.6,0.92 -0.61,1.53 l -0.03,13.61 -10.32,-13.92 c -0.82,-1.25 -1.77,-1.89 -2.83,-1.89 0,0 -0.01,0 -0.01,0 -0.74,0 -1.34,0.25 -1.76,0.73 -0.41,0.46 -0.61,1.09 -0.61,1.85 l -0.04,18.66 c 0,0.6 0.21,1.11 0.62,1.52 0.41,0.41 0.92,0.62 1.52,0.62 0,0 0,0 0.01,0 0.61,0 1.13,-0.2 1.54,-0.59 0.42,-0.4 0.63,-0.92 0.63,-1.54 l 0.03,-13.41 10.21,13.69 c 0.49,0.65 0.93,1.11 1.33,1.41 0.46,0.34 1.03,0.51 1.71,0.52 0,0 0,0 0.01,0 0.67,0 1.24,-0.26 1.65,-0.74 0.39,-0.46 0.59,-1.07 0.59,-1.81 l 0.04,-18.69 c -0.01,-0.62 -0.21,-1.14 -0.61,-1.54 z"
     id="path163"
     inkscape:connector-curvature="0"
     style="fill:url(#SVGID_23_)" />
</svg>
